<?xml version="1.0" encoding="UTF-8" standalone="no"?>
<!-- Created with Inkscape (http://www.inkscape.org/) -->

<svg
   version="1.1"
   id="svg1"
   width="250"
   height="250"
   viewBox="0 0 250 250"
   xmlns="http://www.w3.org/2000/svg"
   xmlns:svg="http://www.w3.org/2000/svg">
  <defs
     id="defs1" />
  <g
     id="layer1">
    <g
       id="g14"
       transform="matrix(0.63110952,0,0,0.63110952,-360.75766,-140.43443)">
      <path
         id="path13"
         style="fill:#000000;stroke:#000000;stroke-width:2.1442"
         d="M 696.29492,581.16406 C 695.9919,581.16338 696,581.25592 696,581.37695 c 0,0.22774 7.43848,3.17277 16.5293,6.54493 17.47891,6.48361 32.33434,10.49554 44.56054,12.0332 9.6591,1.2148 33.996,0.45132 45.41016,-1.42383 10.51391,-1.72726 22.53495,-4.7153 31,-7.70508 9.6604,-3.41196 20.63756,-8.02065 20.18359,-8.47461 -0.23064,-0.23064 -5.17563,0.91612 -10.99023,2.54883 -22.59553,6.34471 -33.32921,7.60914 -63.69336,7.50586 -30.09361,-0.10237 -34.95212,-0.64069 -63,-6.98633 -15.09097,-3.41423 -18.79601,-4.2538 -19.70508,-4.25586 z" />
      <path
         id="path12"
         style="fill:#000000;stroke:#000000;stroke-width:2.1442"
         d="m 672.46289,559.5293 c -3.70529,-0.1575 -7.14071,-0.13275 -10.21289,0.0859 -5.0875,0.36215 -9.2335,0.93434 -9.21289,1.27149 0.0206,0.33714 2.56117,2.07578 5.64453,3.86328 5.09866,2.95582 6.35829,3.25 13.91211,3.25 10.71547,0 25.25215,2.84499 43.40625,8.49609 13.22701,4.11737 31.98142,8.76845 39.5,9.79493 1.65,0.22527 11.13291,0.47618 21.07422,0.55859 14.32342,0.11873 20.34269,-0.26728 29,-1.86328 6.00869,-1.10773 14.97578,-3.16967 19.92578,-4.58203 20.47517,-5.84206 26.78549,-7.36754 35.00195,-8.46094 4.75051,-0.63218 9.81972,-0.92447 11.26367,-0.64844 1.98663,0.37977 4.46311,-0.72323 10.17969,-4.5332 4.15507,-2.76925 8.00469,-5.46664 8.55469,-5.9961 0.64154,-0.61755 -4.91454,-0.78285 -15.5,-0.45898 -17.45538,0.53406 -19.9937,1.02812 -49,9.5332 -29.7643,8.72733 -61.9008,9.32185 -92.01953,1.70313 -5.21429,-1.31899 -15.78047,-4.0153 -23.48047,-5.99219 -13.38411,-3.43623 -26.92123,-5.54899 -38.03711,-6.02148 z" />
      <path
         id="path11"
         style="fill:#000000;stroke:#000000;stroke-width:2.1442"
         d="m 887.66992,531.28906 c -3.25617,-0.0842 -6.75969,-0.0475 -10.3164,0.10156 -7.11343,0.29814 -14.43736,1.04667 -20.41016,2.17969 -4.26329,0.80874 -17.24431,4.13994 -28.8457,7.40235 -25.11458,7.06243 -33.06647,8.35496 -51.59766,8.38281 -16.17734,0.0243 -28.63553,-1.75724 -51.45508,-7.35742 -29.13182,-7.14928 -48.43614,-9.64181 -66.54492,-8.5918 -11.0634,0.6415 -29.35475,3.34654 -30.74805,4.54687 -0.41168,0.35466 0.99687,2.34787 3.13086,4.43165 l 3.88086,3.78906 9.67969,-1.21875 c 12.54986,-1.57965 43.06174,-0.74231 54.55664,1.49609 4.675,0.91037 15.70484,3.40932 24.50977,5.55469 32.3781,7.88908 51.28096,9.20153 77.99023,5.41016 5.5,-0.78073 17.425,-3.43165 26.5,-5.88868 22.02865,-5.96421 28.2132,-7.18681 43.18359,-8.53906 11.98133,-1.08226 33.2134,-0.0967 36.07813,1.67383 0.86318,0.53348 9.73828,-7.36808 9.73828,-8.66992 0,-0.77532 -9.2398,-2.61459 -20.5,-4.08008 -2.56507,-0.33384 -5.5739,-0.53887 -8.83008,-0.62305 z" />
      <path
         id="path10"
         style="fill:#000000;stroke:#000000;stroke-width:2.1442"
         d="m 883.13477,501.86719 c -4.09908,-0.009 -7.93613,0.0937 -11.13477,0.32812 -9.98493,0.73174 -28.6843,5.16697 -47.33203,11.22657 -21.18174,6.88301 -28.82527,8.07918 -51.66797,8.07617 -23.32792,-0.003 -22.95358,0.0584 -54.77539,-9.09571 -26.97436,-7.75963 -37.78124,-9.53144 -58.22461,-9.54492 -18.8681,-0.0124 -37.962,2.9909 -51.31836,8.07227 l -2.81641,1.07226 2.24415,3.24805 c 1.23397,1.787 2.34757,3.39613 2.4746,3.57422 0.12703,0.17808 5.78369,-1.11813 12.57227,-2.87891 11.12618,-2.88584 14.16738,-3.24817 30.84375,-3.68164 21.52994,-0.55963 33.85729,1.07767 55,7.30469 33.30986,9.81052 43.58554,11.46042 68.5,10.99609 16.00662,-0.29831 20.67004,-0.75121 29.59961,-2.87304 5.82971,-1.38525 16.9987,-4.35546 24.82031,-6.59961 23.65324,-6.78648 31.74343,-8.1779 51.08008,-8.78907 15.23949,-0.48167 18.94164,-0.27643 28.66211,1.58594 6.13928,1.17624 13.0085,2.78832 15.26367,3.58399 l 4.09961,1.44726 2.57227,-4.07422 c 1.41484,-2.24126 2.19757,-4.4187 1.73828,-4.83789 -1.15792,-1.05681 -9.4023,-3.54549 -18.33594,-5.53515 -6.90638,-1.53816 -21.56799,-2.5775 -33.86523,-2.60547 z" />
      <path
         id="path9"
         style="fill:#000000;stroke:#000000;stroke-width:2.1442"
         d="m 959.33398,439.48828 c -0.0752,-0.008 -0.16619,0.048 -0.27343,0.17383 -0.39236,0.46033 -2.43913,3.24811 -4.54883,6.19336 -4.85976,6.78443 -11.75492,12.23963 -21.94922,17.36523 -9.77811,4.91633 -20.70568,7.27571 -40.5625,8.75782 -28.01451,2.091 -39.60732,4.2525 -64.5,12.02539 -28.38024,8.86189 -35.30744,10.14228 -58,10.72656 -26.86789,0.69179 -39.19569,-1.1267 -68.67969,-10.13477 -19.08314,-5.83036 -27.81783,-7.60027 -41.66992,-8.4375 -20.51184,-1.23973 -36.60493,0.73641 -56.77148,6.96875 l -10.1211,3.12696 1.6211,3.87109 c 1.15185,2.74978 2.05548,3.69066 3.12109,3.24805 15.8954,-6.60233 28.45967,-8.87583 49,-8.86328 21.98498,0.0134 24.8558,0.56922 61.40039,11.86718 23.16785,7.16247 48.32908,9.85351 70.74414,7.56641 13.43241,-1.37057 25.50198,-4.01815 45.39258,-9.95508 32.24823,-9.62544 51.26936,-12.6478 73.46289,-11.67383 14.80027,0.64952 26.15074,2.48273 38.64453,6.23828 4.47954,1.34651 8.76887,2.44727 9.53125,2.44727 0.76238,0 1.93884,-1.4625 2.61524,-3.25 1.04433,-2.7598 0.99263,-3.42476 -0.34571,-4.4082 C 945.7271,482.07924 931.39817,478 928.68164,478 927.7566,478 927,477.55 927,477 c 0,-0.56618 2.8783,-1 6.63477,-1 3.64909,0 9.46909,-0.5218 12.93359,-1.16016 l 6.29883,-1.16211 2.03515,-7.58789 c 3.17328,-11.83255 5.55958,-26.47611 4.43164,-26.60156 z" />
      <path
         id="path8"
         style="fill:#000000;stroke:#000000;stroke-width:2.1442"
         d="m 636.49805,420.33594 c -4.81113,-0.0131 -9.51415,0.33955 -14.52344,0.99414 -12.64253,1.65205 -30.20415,6.85668 -37.4375,11.0957 -4.30641,2.52373 -4.53711,2.88581 -4.53711,7.11719 0,2.45182 0.24471,4.45703 0.54492,4.45703 0.30021,0 4.72072,-2.02996 9.82227,-4.51172 5.10156,-2.48176 13.74434,-5.69935 19.20508,-7.14844 8.53456,-2.26478 12.03385,-2.64365 24.92773,-2.69922 19.03164,-0.082 24.69346,1.0292 59.63672,11.70118 10.94533,3.3428 28.38571,7.08942 37.36328,8.02539 9.89833,1.03198 38.93424,-0.23372 55.25,-2.40821 9.4875,-1.26444 17.25,-2.58863 17.25,-2.9414 0,-1.62422 -23.72184,-3.34989 -48.5,-3.5293 -30.39394,-0.22007 -36.54287,-1.07243 -61.5,-8.5293 -27.65247,-8.26221 -43.06857,-11.5838 -57.50195,-11.62304 z" />
      <path
         id="path7"
         style="fill:#000000;stroke:#000000;stroke-width:2.1442"
         d="m 957.19922,394.66602 c -0.33285,0.34446 -0.79034,1.69126 -1.65234,4.33398 -3.718,11.39862 -8.5966,19.11518 -18.02149,28.5 -9.77936,9.73778 -15.59119,13.60781 -29.22266,19.45898 -16.96209,7.28081 -30.30086,9.42435 -52.80273,8.48243 -18.38437,-0.76956 -23.7702,-0.15244 -49.5,5.68554 -24.09317,5.46664 -34.28502,6.86408 -50,6.84961 -20.5026,-0.0189 -32.64478,-2.07989 -62.08789,-10.53711 -22.09322,-6.34604 -28.27567,-7.41435 -46.92188,-8.10547 -13.04647,-0.48358 -18.60458,-0.25893 -26.5,1.06836 -10.66534,1.79293 -23.93904,5.48382 -31.81054,8.84571 -4.37472,1.86843 -4.76121,2.29739 -4.17969,4.65429 0.3524,1.42822 0.96384,2.92898 1.35742,3.33399 0.39358,0.405 4.97469,-0.78203 10.17969,-2.63867 15.98709,-5.70268 24.37331,-7.07389 42.96289,-7.02149 20.01923,0.0564 27.07066,1.25785 55.5,9.46094 17.80153,5.1365 28.76472,7.55012 47,10.34766 5.75802,0.88336 32.07046,-0.32594 41,-1.88477 4.95,-0.86413 16.425,-3.56184 25.5,-5.99414 9.075,-2.43231 19.425,-4.93366 23,-5.55859 9.31804,-1.62887 27.4789,-1.39551 42.20508,0.54101 14.617,1.92217 24.54664,1.17612 38.29492,-2.8789 10.84033,-3.19737 14.31094,-4.74307 22.37695,-9.96094 10.05317,-6.50336 17.37865,-14.4196 22.20508,-23.99414 l 4.11133,-8.1543 -0.6582,-10.15234 c -0.36115,-5.58372 -1.00099,-11.43372 -1.42383,-13 -0.36941,-1.36835 -0.57926,-2.0261 -0.91211,-1.68164 z" />
      <path
         id="path6"
         style="fill:#000000;stroke:#000000;stroke-width:2.1442"
         d="m 632.64844,391.68359 c -15.82074,0.42222 -30.5231,4.29595 -44.14844,11.61914 l -8,4.30079 -0.8457,6.26757 c -0.46564,3.44761 -0.62662,6.49057 -0.35547,6.76172 0.27116,0.27116 2.80773,-1.25679 5.63476,-3.39648 6.22365,-4.71051 21.82827,-11.40194 32.06641,-13.75 4.125,-0.94604 12.96452,-1.95183 19.64258,-2.23438 20.94608,-0.88624 34.29334,1.98923 64.85742,13.97071 16.99545,6.66241 36.85573,13.67066 38.94922,13.74414 0.6,0.0211 0.6,-0.29594 0,-0.86133 -1.59286,-1.50098 -29.24961,-15.56883 -41.15039,-20.93164 -21.44104,-9.66192 -41.35407,-14.81479 -59.80078,-15.45899 -2.30584,-0.0805 -4.58951,-0.0916 -6.84961,-0.0312 z" />
      <path
         id="path5"
         style="fill:#000000;stroke:#000000;stroke-width:2.1442"
         d="m 945.53516,353.5 -0.78125,7 c -1.52687,13.69562 -6.19981,23.62659 -16.0918,34.20117 -17.61448,18.82993 -47.60098,31.05149 -80.75391,32.91211 -30.3816,1.7051 -66.71036,-9.53618 -114.1289,-35.3164 C 689.38053,368.15839 656.33299,359.41306 627,364.04102 c -14.85988,2.3445 -30.3099,9.32544 -38.62305,17.45117 -4.74116,4.63426 -5.21199,5.53038 -6.30859,12.00781 -0.65179,3.85 -1.39663,8.0278 -1.6543,9.2832 -0.33622,1.63802 1.86862,-0.067 7.8086,-6.03906 6.14957,-6.18274 10.34073,-9.38886 16.30468,-12.46875 13.00017,-6.71352 20.48963,-8.44007 38.97266,-8.98828 14.40948,-0.42738 17.26363,-0.21813 28.70703,2.11523 22.01417,4.4888 29.04585,7.58927 103.0332,45.41602 22.92951,11.72293 44.70972,18.85305 62.75977,20.54687 7.64988,0.71787 26.24336,-0.27865 35.58789,-1.9082 16.77853,-2.92593 35.9744,-10.76773 49.02344,-20.02539 13.46136,-9.55018 24.2837,-24.4568 27.90039,-38.43164 2.00012,-7.72841 1.57759,-11.97296 -2.20117,-22.07812 z" />
      <path
         id="path4"
         style="fill:#000000;stroke:#000000;stroke-width:2.1442"
         d="m 928.39648,323.79492 c -0.2235,0.28877 -0.089,1.58751 0.17188,3.70508 2.32372,18.8616 -10.86605,39.69483 -32.06836,50.65039 -19.84533,10.25439 -37.11796,14.3654 -60,14.2793 -29.456,-0.11084 -48.47965,-5.81942 -96.5,-28.95703 -26.40789,-12.7241 -39.34797,-18.13636 -52.5,-21.95899 -31.7098,-9.21644 -64.0018,-6.56531 -86.11133,7.07031 l -7.11328,4.38672 -3.63672,9.50391 C 588.63787,367.7019 587,372.26626 587,372.61719 c 0,0.35094 1.9125,-1.12193 4.25,-3.27344 27.91811,-25.69672 70.58522,-28.80585 121.75,-8.86914 7.425,2.8932 26.67044,11.85187 42.76758,19.90625 39.7294,19.87903 49.10669,23.58378 68.73242,27.16211 9.70482,1.76947 29.5429,1.75159 39.78906,-0.0352 37.19087,-6.48555 65.64541,-27.57131 72.31055,-53.58789 2.18042,-8.51102 1.35865,-14.54333 -3.0332,-22.25781 -2.74323,-4.8186 -4.1681,-7.27088 -4.81836,-7.8125 -0.16257,-0.13541 -0.27706,-0.15094 -0.35157,-0.0547 z" />
      <path
         id="path3"
         style="fill:#000000;stroke:#000000;stroke-width:2.1442"
         d="m 906.96094,298.58789 1.14648,3.29297 c 0.66218,1.89952 0.93998,6.22208 0.6543,10.21484 -1.50868,21.08566 -22.55275,38.92952 -53.76172,45.58594 -12.30268,2.62398 -34.91753,2.35018 -49,-0.59375 -19.22217,-4.01838 -32.29826,-9.01631 -79.63672,-30.4375 -11.95853,-5.41136 -26.07108,-10.44844 -35.86328,-12.79883 -7.59399,-1.82276 -38.04946,-1.47395 -49,0.56055 -9.36911,1.74069 -18.80592,4.493 -26.50586,7.73047 -3.74615,1.57509 -5.32086,3.16965 -9.33203,9.46094 -2.65367,4.16214 -4.6742,7.70992 -4.49219,7.88281 0.18202,0.17288 3.21654,-1.43694 6.74414,-3.57617 7.11618,-4.31545 13.85579,-7.05351 25.08594,-10.19141 6.53189,-1.82512 10.3398,-2.10245 29.5,-2.15625 24.43688,-0.0686 28.49532,0.51684 48.61133,7.01562 13.83952,4.47107 26.27558,9.7153 51.89844,21.88868 26.39342,12.53948 41.86268,18.32543 56.49023,21.125 10.71227,2.05023 37.83749,1.2535 47.67578,-1.40039 23.91255,-6.45045 40.79628,-18.30581 48.63477,-34.14649 3.41169,-6.89463 3.6846,-8.09997 3.63086,-16.04101 -0.0536,-7.92196 -0.29755,-8.93079 -3.15039,-13.04493 -1.70062,-2.45249 -4.49512,-5.79017 -6.21094,-7.41601 z" />
      <path
         id="path2"
         style="fill:#000000;stroke:#000000;stroke-width:2.1442"
         d="m 770.5,240.61523 c -19.17087,-0.0352 -22.11869,0.20045 -33.83789,2.69727 -23.94709,5.10203 -39.87712,11.41157 -65.4375,25.92188 -9.43634,5.35689 -23.95511,15.65199 -27.0293,19.16601 -1.6143,1.84524 -1.59925,1.89885 0.30469,1.10547 27.25624,-11.35789 58.56661,-12.72119 91.12109,-3.9668 10.92311,2.93739 17.10977,5.24133 36.87891,13.72852 33.49939,14.38178 51.03844,17.99809 69,14.22851 21.33258,-4.47706 32.76544,-13.9948 32.86133,-27.35742 0.0493,-6.87397 -1.81636,-10.68746 -8.48828,-17.35937 -8.98733,-8.98734 -35.68258,-20.03942 -61.37305,-25.40821 -11.70045,-2.44516 -15.09928,-2.7212 -34,-2.75586 z m -49.67773,22.01368 c 2.92682,-0.0357 5.84884,0.0425 8.79101,0.23828 17.65302,1.17472 36.05606,6.62581 60.88086,17.61133 19.2772,8.53058 27.87665,10.82332 41.00586,10.93164 10.05431,0.083 11.47701,-0.14496 16.55469,-2.63868 6.6557,-3.26871 9.66336,-6.27045 11.44336,-11.42578 1.31953,-3.82168 1.33155,-3.8291 2.00976,-1.14843 1.56934,6.20284 -4.2484,14.58077 -12.97265,18.68164 -9.67135,4.54608 -22.57274,6.3323 -36.26954,5.02148 -14.71644,-1.4084 -29.99286,-5.81939 -60.04296,-17.33594 -25.87668,-9.9171 -38.31562,-12.63672 -57.8086,-12.63672 -6.97217,0 -12.49121,-0.18455 -12.26562,-0.41015 1.32667,-1.32666 21.82524,-5.75374 29.85156,-6.44727 2.96383,-0.25609 5.89544,-0.4057 8.82227,-0.4414 z M 884.83008,279 c -0.39166,0 -0.0664,1.2375 0.72265,2.75 1.91733,3.67552 1.82835,12.77692 -0.18359,18.68164 -6.23728,18.30542 -39.27463,30.45261 -72.39453,26.61914 -20.63453,-2.38835 -35.36517,-7.0452 -73.97461,-23.38476 -8.525,-3.60779 -19.94734,-7.7115 -25.38281,-9.11914 l -9.88281,-2.5586 -26.61719,0.93945 c -21.3827,0.75494 -28.28882,1.35316 -35.11719,3.04297 -8.23816,2.03868 -8.72333,2.32468 -15.75,9.29102 -3.9875,3.95327 -7.25,7.5122 -7.25,7.9082 0,0.396 2.3625,-0.31195 5.25,-1.57422 7.09653,-3.10224 21.21446,-6.33904 32.75,-7.50781 5.225,-0.52939 14.59646,-1.50528 20.82617,-2.16797 26.08488,-2.77482 41.33172,0.93583 87.7168,21.34375 21.01959,9.24793 34.42171,14.30714 44.34961,16.74219 11.1543,2.73586 12.30143,2.84003 27.60742,2.52539 11.72729,-0.24108 15.46103,-0.7221 23,-2.9668 20.42809,-6.08238 34.04801,-17.33397 38.18555,-31.54492 1.34684,-4.6259 1.41744,-6.49103 0.4375,-11.51953 -1.07038,-5.4926 -1.69435,-6.48625 -7.375,-11.75 -3.41297,-3.1625 -6.52631,-5.75 -6.91797,-5.75 z" />
    </g>
  </g>
</svg>
