<?xml version="1.0" encoding="UTF-8" standalone="no"?>
<!-- Created with Inkscape (http://www.inkscape.org/) -->

<svg
   version="1.1"
   id="svg1"
   width="2048"
   height="1152"
   viewBox="0 0 2048 1152"
   sodipodi:docname="logo.svg"
   inkscape:version="1.4 (e7c3feb1, 2024-10-09)"
   inkscape:export-filename="logo-youtube.jpg"
   inkscape:export-xdpi="96"
   inkscape:export-ydpi="96"
   xmlns:inkscape="http://www.inkscape.org/namespaces/inkscape"
   xmlns:sodipodi="http://sodipodi.sourceforge.net/DTD/sodipodi-0.dtd"
   xmlns="http://www.w3.org/2000/svg"
   xmlns:svg="http://www.w3.org/2000/svg">
  <defs
     id="defs1" />
  <sodipodi:namedview
     id="namedview1"
     pagecolor="#ffffff"
     bordercolor="#000000"
     borderopacity="0.25"
     inkscape:showpageshadow="2"
     inkscape:pageopacity="0.0"
     inkscape:pagecheckerboard="0"
     inkscape:deskcolor="#d1d1d1"
     inkscape:zoom="0.4902607"
     inkscape:cx="955.61402"
     inkscape:cy="522.17116"
     inkscape:window-width="1552"
     inkscape:window-height="821"
     inkscape:window-x="1990"
     inkscape:window-y="150"
     inkscape:window-maximized="0"
     inkscape:current-layer="layer2" />
  <g
     inkscape:groupmode="layer"
     id="layer1"
     inkscape:label="Black">
    <path
       id="rect1"
       style="display:none;fill:#000000;stroke:#000000;stroke-width:5.78965"
       d="m 1442.2219,2.8949424 c -42.3968,-0.020462 -65.8274,2.5214095 -139.8958,15.1824926 -65.8033,11.248267 -103.9341,14.320093 -157.3015,12.659956 -44.1555,-1.373578 -76.4028,-4.768315 -128.8209,-13.5581 C 955.0491,6.9244907 930.56611,4.5272054 887.38284,4.5623101 842.40674,4.598878 817.09574,7.0500734 731.0361,19.706126 685.26711,26.436987 670.77293,27.635408 622.85099,28.657479 561.73285,29.960996 538.47482,28.3003 476.69745,18.219247 398.24682,5.4173925 386.87559,4.2345078 342.37142,4.2571988 303.30132,4.277221 294.4693,5.0585515 244.37943,12.912036 l -55.05164,8.629053 -93.037299,0.02156 c -68.282785,0.01386 -93.0374927,0.686192 -93.0373034,2.531129 3.48e-4,3.388912 63.5488474,6.370578 127.7198424,5.994787 41.92776,-0.245531 57.50385,-1.348956 101.29503,-7.18515 89.28109,-11.898764 135.99628,-11.511928 230.11595,1.912316 40.83925,5.824882 76.74645,9.977853 103.49712,11.963786 22.11754,1.641981 89.00879,-1.267556 124.41676,-5.410347 19.98375,-2.338132 52.68444,-6.241563 72.66819,-8.672028 85.8366,-10.439621 152.21625,-10.071494 235.62109,1.302094 22.40603,3.055422 51.63853,7.049889 64.96103,8.8783 13.6652,1.875446 49.6567,3.830678 82.5775,4.482121 59.7642,1.182634 99.1398,-1.309497 145.3363,-9.1963 50.6898,-8.653902 89.2672,-12.403709 140.1452,-13.618261 60.3607,-1.440923 84.0529,0.22628 162.639,11.435213 72.0753,10.280298 92.4856,12.104444 135.1087,12.079814 38.4709,-0.02222 69.9441,-2.906133 130.2402,-11.938002 54.9506,-8.231154 90.5748,-10.684451 140.1065,-9.643222 41.0152,0.8622 44.867,0.624845 44.867,-2.771783 0,-5.5461654 -5.9887,-6.4576069 -51.7484,-7.8899102 -46.6153,-1.4590716 -68.2348,0.2661692 -130.7563,10.4511312 -71.2159,11.60128 -86.413,13.014024 -139.956,12.990849 -56.3575,-0.0244 -82.0302,-2.361785 -154.2866,-14.043697 C 1501.3792,4.473566 1485.5053,2.9158424 1442.2219,2.895017 Z M 1423.586,35.387109 c -44.858,-0.06246 -68.4741,2.513861 -140.9323,15.371572 -44.6951,7.931161 -45.7531,8.014039 -106.8002,8.078995 -66.549,0.07081 -54.422,1.285707 -168.4581,-16.901425 -24.90352,-3.971768 -39.01917,-4.74058 -86.98159,-4.739963 -59.78018,7.64e-4 -78.45865,1.650739 -146.43741,12.926388 C 713.00955,60.235261 686.02247,62.860426 641.85243,62.988904 594.22612,63.127438 578.4028,61.529647 503.12226,48.970989 398.71566,31.553397 368.89397,31.794703 246.58152,51.042309 201.44542,58.145114 146.72485,60.582641 70.966727,58.863459 11.963153,57.524487 3.2531876,57.745314 3.2531876,60.582393 c 0,3.996655 45.4031374,6.232929 126.6188224,6.239735 56.07648,0.0046 73.41484,-1.283144 136.5281,-10.154605 90.07306,-12.661046 149.14321,-11.354395 264.24794,5.848676 78.01144,11.659258 126.13532,11.179937 223.59577,-2.234619 73.502,-10.116887 96.08371,-11.876277 154.05863,-11.998165 56.71268,-0.119229 79.27748,1.523493 161.85195,11.791894 91.1907,11.339864 127.1758,10.990138 222.3914,-2.157264 117.2243,-16.186351 193.6624,-14.818181 314.1601,5.620916 59.6661,10.120717 112.4545,11.435748 167.5678,4.172715 13.3756,-1.762674 32.8408,-4.630737 43.2585,-6.372953 46.4633,-7.770318 62.0513,-8.929939 116.9332,-8.697804 44.5828,0.188561 61.5299,1.125623 82.2462,4.550876 21.6908,3.586329 26.2865,3.805799 27.2463,1.30639 0.6352,-1.653652 0.5169,-3.643391 -0.2623,-4.42196 -0.7793,-0.778569 -15.0213,-3.747267 -31.6504,-6.60071 -22.111,-3.794112 -42.6984,-5.530238 -76.6165,-6.454597 -51.0911,-1.392377 -62.1148,-0.405124 -126.481,11.289103 -93.6764,17.019348 -140.8139,16.378428 -251.0056,-3.394897 -56.2676,-10.096936 -89.7296,-13.465861 -134.3561,-13.528015 z m -6.6579,33.854419 c -37.8102,-0.535149 -74.5018,3.678715 -125.4661,12.423601 -46.3478,7.952743 -48.5265,8.117429 -103.4971,8.005939 -42.8012,-0.08682 -61.6504,-1.028405 -79.2744,-3.966439 C 1021.4765,71.165485 1012.6618,70.263262 956.74791,70.122481 898.44893,69.975705 882.59954,71.407369 812.51257,83.164899 739.64894,95.388227 729.70373,96.341002 675.98446,96.237402 623.41076,96.136024 611.82411,94.95703 548.27321,83.22936 456.56816,66.306126 396.10547,66.290258 299.4311,83.169194 240.32345,93.489133 211.24586,95.287678 103.51171,95.287678 c -82.34658,0 -100.2585224,0.525474 -100.2585224,2.947973 0,3.359479 63.3196164,5.869039 147.3449124,5.835779 55.04003,-0.0218 81.36292,-2.04586 142.22682,-10.919529 104.88403,-15.291599 156.72834,-14.77052 274.15723,2.741704 44.08374,6.574225 51.28764,7.055065 104.59816,7.000365 53.82341,-0.0553 60.68405,-0.5396 114.50745,-8.104781 80.48584,-11.312744 98.07114,-12.702931 160.78096,-12.702931 56.96698,0 94.84268,2.686397 160.02828,11.349266 54.0573,7.183966 114.3279,6.856436 173.5546,-0.945412 69.0855,-9.100505 89.6635,-10.662579 139.7969,-10.605828 52.2094,0.05909 84.4376,3.129191 154.7812,14.74846 39.9831,6.604366 63.401,9.273046 100.6929,11.469586 2.4223,0.14268 16.7908,-0.64872 31.93,-1.7576 15.1391,-1.1089 44.3716,-4.48526 64.9608,-7.503156 20.5894,-3.017892 50.1538,-6.670973 65.7008,-8.11767 37.6678,-3.505091 106.0424,-1.443199 144.5967,4.3618 16.3503,2.461819 37.0126,5.147126 45.9165,5.964706 15.1186,1.38824 16.1374,1.20812 15.3886,-2.690137 -0.6658,-3.465652 -3.5822,-4.449887 -17.1693,-5.805705 -9.0006,-0.898145 -34.7497,-4.789004 -57.2236,-8.646238 -36.482,-6.261505 -45.7011,-7.029757 -86.0053,-7.167961 -28.3529,-0.09725 -51.2848,0.926117 -61.6578,2.754596 -9.0835,1.601178 -31.8749,5.764634 -50.6475,9.247869 -82.8836,15.378956 -124.1237,14.740536 -222.4088,-3.433572 -55.4362,-10.250817 -94.3652,-15.532585 -132.1756,-16.067734 z M 977.28476,102.27516 c -41.56829,0.80326 -83.5603,5.68154 -136.14532,14.83011 -57.13221,9.93966 -77.91822,11.93929 -122.2147,11.74463 -40.92099,-0.17984 -46.28337,-0.77249 -134.32605,-14.83873 -83.18345,-13.28986 -140.97133,-12.738 -232.32659,2.22603 -83.99128,13.75781 -94.93919,14.52304 -227.44076,15.8314 -88.330451,0.8722 -121.5270997,1.87547 -120.9330152,3.66133 2.0275527,6.09496 218.8316052,6.30783 271.3100452,0.26643 16.9559,-1.952 46.68381,-5.92073 66.06201,-8.81815 19.37819,-2.89739 47.8704,-6.43057 63.318,-7.85551 39.41923,-3.6362 131.39911,-1.43973 177.80825,4.24576 133.99174,16.41508 146.73947,16.60344 240.02523,3.59687 63.12104,-8.80078 75.06474,-9.93659 126.02101,-11.99816 54.95853,-2.22351 102.34093,-0.36785 173.55893,6.80269 63.9239,6.43612 116.9516,6.30123 174.9654,-0.45122 36.1386,-4.20632 55.1051,-5.12221 105.6992,-5.10524 65.7852,0.022 81.3016,1.42304 156.3467,14.11676 74.0058,12.51793 108.4121,13.32116 181.6703,4.23716 84.3055,-10.4538 132.6564,-10.65553 202.9385,-0.83798 22.2153,3.10319 54.1189,6.2276 70.8964,6.9402 29.1568,1.23839 30.4683,1.10883 29.7021,-2.89212 -0.726,-3.7899 -3.7175,-4.32367 -31.6076,-5.65958 -17.5551,-0.84089 -51.639,-4.84969 -79.2485,-9.32093 -80.4744,-13.03245 -107.4442,-12.82243 -190.4787,1.49549 -38.2281,6.59179 -43.9267,7.01714 -92.4868,6.88862 -46.463,-0.12297 -55.0099,-0.74262 -83.6786,-6.06353 -113.372,-21.04188 -103.5303,-19.87485 -168.458,-19.94397 -53.7879,-0.0572 -63.0243,0.49433 -96.8909,5.80572 -77.6596,12.17961 -108.045,12.29237 -190.4787,0.71336 -50.8949,-7.14893 -92.0396,-10.4207 -133.60784,-9.61744 z m 27.63334,30.92364 c -15.15692,0.21222 -28.68464,0.71133 -39.20709,1.52125 -18.68698,1.43835 -58.81962,5.68325 -89.18369,9.43694 -75.6668,9.35418 -127.47344,9.47283 -210.45216,0.4813 -50.71986,-5.49595 -66.85401,-6.32335 -123.31571,-6.33856 -69.21299,-0.0187 -87.45594,1.43193 -151.94258,12.10131 -91.46454,15.13289 -95.28538,15.40774 -246.37768,17.56321 -76.767297,1.09516 -140.0371448,2.44897 -140.6010786,3.01243 -5.328831,5.32442 8.2660436,5.83921 135.5690186,5.10524 113.52883,-0.65455 137.6649,-1.35694 160.66049,-4.67979 28.95669,-4.18424 33.57812,-3.84368 32.39019,2.4065 -0.41674,2.1926 -0.83633,9.07913 -0.929,15.30281 -0.12862,8.63537 -1.08061,11.67508 -4.02138,12.82326 -2.11947,0.82751 -75.52846,2.33178 -163.13352,3.34763 -87.605072,1.01585 -159.8632434,2.42639 -160.5702058,3.13276 -0.7069646,0.70638 -0.5417459,2.02747 0.3655783,2.93508 2.9305827,2.93146 228.0795875,3.34053 274.3421875,0.49847 23.61717,-1.45084 45.40486,-2.77558 48.41965,-2.94366 5.15254,-0.28722 5.52658,0.44389 6.22343,12.17864 1.39675,23.52107 10.53552,21.61993 -103.91001,21.61993 -147.748509,0 -225.9913524,2.09916 -225.9913524,6.06353 0,2.72229 21.3751564,2.98377 155.7962024,1.89082 85.68789,-0.69672 159.75989,-1.53492 164.60445,-1.86074 l 8.80826,-0.59304 0.64514,15.95174 0.64943,15.95169 H 231.62294 c -150.023179,0 -228.3697524,2.07954 -228.3697524,6.06356 0,2.71982 22.8353994,3.05272 165.2409924,2.3979 l 165.24098,-0.76065 -0.63654,14.97624 -0.63652,14.97191 -112.30537,0.10732 C 73.076075,318.00356 5.0334239,319.84009 3.7520922,323.69962 2.9662011,326.06681 32.451112,326.50809 167.62969,326.1577 l 164.83241,-0.42545 v 15.13952 15.14384 l -7.70724,-0.0988 c -4.23899,-0.0547 -30.4986,-1.34902 -58.35475,-2.87495 -50.96357,-2.7917 -72.97348,-2.35682 -204.792163,4.0524 -24.222731,1.17774 -47.261849,2.1613 -51.198043,2.18304 -5.1790164,0.0286 -7.1567164,1.04446 -7.1567164,3.68282 0,3.30675 3.42442,3.51109 36.7985964,2.19595 20.238337,-0.79751 78.950926,-2.06617 130.472436,-2.81906 111.24954,-1.62572 173.68676,0.88555 255.64181,10.27922 175.39955,20.1042 199.93748,21.84617 293.85974,20.84209 49.88,-0.53324 88.33771,-2.05523 109.0023,-4.31024 40.6453,-4.43541 84.64867,-10.64934 126.61881,-17.8855 18.16705,-3.13221 43.43576,-6.77402 56.15272,-8.0919 12.7169,-1.31784 23.4997,-2.68984 23.9604,-3.04678 0.4607,-0.35699 -4.0499,-6.3755 -10.0212,-13.37764 -5.9712,-7.00216 -24.6814,-28.90467 -41.57687,-48.67164 -16.8955,-19.76699 -31.0475,-36.85085 -31.45255,-37.96268 -0.40507,-1.11183 16.93619,-22.50577 38.53615,-47.54142 21.59997,-25.03563 40.06217,-46.81348 41.03067,-48.39661 1.4198,-2.32073 -4.5575,-2.8792 -30.8505,-2.8792 h -32.60943 l -25.28073,29.7032 c -13.90431,16.33676 -25.85899,29.70318 -26.56675,29.70318 -1.42703,0 -46.77142,-54.34273 -47.93795,-57.45109 -0.80554,-2.14649 -66.42756,-2.77054 -66.42756,-0.6317 0,1.51361 31.41846,39.70524 59.93746,72.86136 10.63544,12.3647 19.3369,23.10674 19.3369,23.86738 0,0.76068 -18.82766,23.52192 -41.83923,50.57966 -23.01162,27.05766 -41.83929,50.14212 -41.83929,51.3016 0,1.23844 13.09264,2.18299 31.73645,2.2862 l 31.73641,0.17189 24.76896,-30.23609 c 13.62125,-16.63153 25.97784,-31.57399 27.4613,-33.20551 2.20009,-2.41966 6.445,1.63545 23.02279,22.00235 27.17991,33.3924 34.70789,41.41368 39.18129,41.75725 2.07066,0.15913 -2.67776,1.06301 -10.55015,2.00685 -123.68719,14.82966 -146.06521,16.22055 -260.94485,16.23104 -58.4965,0.004 -122.1676,-1.18393 -146.43743,-2.7374 -64.29638,-4.11551 -169.27863,-13.6031 -174.70299,-15.7884 -2.8624,-1.15318 25.37277,-1.97901 70.65536,-2.06273 l 75.42077,-0.13754 V 339.5439 317.57163 l -71.01663,-0.58013 -71.01666,-0.58014 -0.64083,-17.01746 -0.64512,-17.01316 58.99987,-0.58875 58.99562,-0.58442 0.63224,-20.35217 0.63225,-20.35218 h -59.5375 -59.53757 v -16.50181 -16.50175 h 69.36514 69.36506 V 184.3972 161.29471 l -79.8249,-0.24065 c -82.43287,-0.24894 -85.83431,-1.03202 -31.67622,-7.30548 74.46413,-8.6256 131.89162,-9.06905 245.82717,-1.89941 84.32535,5.30634 148.92725,4.68394 229.01493,-2.19594 92.0683,-7.90907 135.19222,-9.08306 208.09522,-5.68109 37.3493,1.74288 123.7318,2.90869 219.1057,2.96088 l 157.4476,0.086 48.4369,6.21396 c 26.6409,3.41735 48.8572,6.62957 49.3659,7.13787 0.5087,0.50828 -30.4577,0.92393 -68.8102,0.92393 h -69.7307 v 100.11076 100.11075 l 72.1177,0.17191 c 39.6646,0.0955 70.9768,0.64196 69.5843,1.21185 -1.3924,0.56995 -9.8153,2.44534 -18.7175,4.16842 l -16.1844,3.13278 14.3134,-1.01419 c 7.8724,-0.55762 28.682,-2.19789 46.2435,-3.64414 41.9522,-3.45485 164.0012,-3.37903 240.0251,0.14612 33.3064,1.54439 92.7622,2.4737 132.1241,2.06701 61.8182,-0.63867 71.5672,-1.18869 71.5672,-4.03949 0,-2.8703 -13.9166,-3.46926 -106.8002,-4.60673 -74.8138,-0.91619 -119.6608,-2.47585 -149.7405,-5.19979 -42.0368,-3.80673 -98.6162,-3.70829 -141.4829,0.24065 l -14.8639,1.36657 v -15.70244 -15.70248 l 76.5218,0.0387 c 42.087,0.0198 103.277,1.48499 135.9776,3.25306 94.7659,5.1239 202.838,4.06216 200.8311,-1.97244 -0.5595,-1.68203 -30.9277,-2.84459 -99.7166,-3.82034 -68.0614,-0.96542 -108.528,-2.50678 -129.7414,-4.93766 -51.1686,-5.8634 -95.9481,-6.68547 -148.1148,-2.7202 -48.0985,3.65609 -123.0337,4.65913 -158.7336,2.12719 l -20.1584,-1.42673 v -16.30407 -16.30411 l 148.089,1.37087 c 88.7979,0.82361 168.8078,2.67247 199.8374,4.61532 108.0101,6.76277 209.1963,6.68726 209.1963,-0.1547 0,-2.22475 -18.0273,-3.07374 -85.3299,-4.0266 -63.7169,-0.90208 -96.2065,-2.35912 -128.2705,-5.74555 -69.6286,-7.35378 -101.2864,-7.85305 -164.5314,-2.60418 -30.5408,2.53455 -57.0481,4.60668 -58.9051,4.60668 -2.7626,0 -3.3762,-3.31934 -3.3762,-18.25078 v -18.25078 l 40.1876,0.63601 c 22.1032,0.34825 74.8704,1.08052 117.2601,1.62867 43.3092,0.56001 92.5068,2.45866 112.3054,4.33171 47.3053,4.4754 170.66,4.87936 170.66,0.55866 0,-2.371 -14.107,-3.23684 -72.3197,-4.42198 -55.9862,-1.13977 -83.2173,-2.73745 -120.5631,-7.082 -67.0429,-7.79925 -106.6975,-8.8567 -160.5487,-4.27584 -25.178,2.14177 -78.2312,4.24489 -123.8663,4.90757 l -79.8249,1.16028 v -16.5104 -16.51036 l 138.1797,-1.66306 c 156.1455,-1.87917 201.6084,-0.96172 269.2026,5.43181 31.8822,3.01565 64.1198,4.48201 98.7059,4.49073 47.7312,0.011 51.3041,-0.25913 50.6174,-3.83751 -0.6784,-3.5355 -6.4077,-3.9607 -70.0747,-5.19549 -59.2156,-1.14846 -75.2866,-2.21442 -110.0775,-7.31408 -54.838,-8.03814 -102.3465,-9.46582 -161.8519,-4.85599 -25.4339,1.97036 -53.18,3.83613 -61.6579,4.14696 l -15.4145,0.56722 -0.6364,-15.40165 -0.6322,-15.40165 64.4921,-1.01418 c 124.743,-1.9627 171.331,-1.0588 213.1359,4.13833 24.0196,2.98613 58.3208,5.2879 91.0589,6.11084 50.7746,1.27631 52.4971,1.18091 51.7227,-2.85773 -0.7527,-3.92527 -4.059,-4.25328 -54.7248,-5.46623 -45.8044,-1.09657 -61.054,-2.39425 -101.2693,-8.60326 -41.1527,-6.35375 -53.1041,-7.3356 -91.3856,-7.50745 -29.2302,-0.13122 -56.9687,1.18972 -82.483,3.92776 -57.8072,6.20353 -104.1585,4.31472 -174.2858,-7.10349 -81.8292,-13.32355 -119.4791,-16.52123 -175.9373,-14.95044 -26.0394,0.72448 -58.2447,2.43584 -71.5672,3.80315 -34.8484,3.57655 -102.1009,3.01632 -144.2353,-1.19896 -37.7881,-3.78047 -97.9387,-5.71187 -143.4096,-5.07515 z m 381.2328,27.95846 -26.9755,0.61883 -26.9751,0.61881 v 58.8563 c 0,32.37146 -0.565,58.85679 -1.2559,58.85635 -0.691,-4.2e-4 -24.8461,-26.73287 -53.6755,-59.40639 l -52.4151,-59.40638 h -27.255 -27.2505 V 261.40555 361.5163 h 27.4915 27.4914 l 0.5849,-61.26282 0.585,-61.26284 53.6236,61.26284 53.6282,61.26282 h 26.1968 26.2012 V 261.33679 Z m -611.83903,0.004 -28.24409,0.61451 -28.24408,0.61882 -1.10102,64.90696 c -1.01658,59.928 -1.44349,65.4977 -5.54389,72.6078 -6.86407,11.90235 -21.55104,18.18204 -42.536,18.18204 -26.10746,0 -41.32811,-9.59236 -46.66918,-29.41098 -1.30122,-4.8285 -2.22174,-31.83504 -2.14185,-62.96888 0.0769,-29.98317 0.1077,-56.74373 0.0687,-59.46652 -0.0696,-4.86751 -0.5327,-4.95064 -27.73216,-4.95064 h -27.66345 l 0.68812,70.95762 0.68815,70.95761 7.13952,14.58086 c 8.46594,17.28882 20.29666,28.6551 38.83291,37.31381 17.99034,8.40367 32.69296,10.71489 63.02984,9.90106 20.33894,-0.54561 28.511,-1.794 41.51673,-6.34287 20.91074,-7.31382 32.20594,-15.28788 41.52528,-29.31217 13.86278,-20.86151 14.58401,-25.55075 15.53058,-100.46743 z m 294.74153,0.13311 v 100.11076 100.11075 h 27.5257 27.5259 V 261.40555 161.29479 h -27.5259 z m 597.8609,216.84362 c -41.8983,-0.075 -57.299,1.76665 -120.3524,14.37456 -97.3036,19.45643 -142.8147,19.78911 -264.106,1.9424 -74.0014,-10.88851 -91.5379,-12.85298 -136.1238,-15.25553 -59.441,-3.20301 -99.2664,0.12363 -210.5038,17.57182 -101.07106,15.85345 -183.69671,21.13305 -296.17793,18.93407 -101.89607,-1.99209 -149.10491,-6.00119 -251.6162,-21.37067 -120.84327,-18.11801 -156.2563,-18.97891 -260.75131,-6.34287 -19.59119,2.36908 -50.310019,5.36949 -68.264061,6.66945 -53.7037066,3.88848 -55.7656114,4.18661 -55.7656114,8.01455 0,3.02625 3.6335878,3.25254 30.2784134,1.89942 16.653128,-0.84572 53.002684,-3.45479 80.775419,-5.80142 125.48209,-10.60238 189.23596,-8.33686 345.87493,12.29469 128.65842,16.94615 206.4092,21.33886 290.67274,16.42874 47.69987,-2.77954 88.13657,-7.20567 153.04363,-16.75532 98.35268,-14.47047 121.50808,-16.54756 198.18598,-17.7996 85.3502,-1.39364 120.9685,0.6989 210.5554,12.38924 109.6324,14.30608 133.0729,14.0983 229.8578,-2.06701 28.4618,-4.75373 63.6397,-9.79367 78.1734,-11.19884 31.6366,-3.05885 97.1224,-1.28759 132.124,3.57538 63.6794,8.8473 82.4187,9.83422 187.7262,9.85806 91.0291,0.0198 104.0475,-0.39143 104.0475,-3.27885 0,-2.65348 -3.5606,-3.334 -18.1669,-3.46795 -110.7141,-1.01532 -221.0236,-4.41714 -238.3737,-7.35274 -70.9861,-12.01063 -81.7492,-13.19111 -121.1137,-13.26158 z m -35.2331,35.40574 c -47.6048,0.18666 -51.7064,0.73829 -134.326,17.98865 -87.9374,18.36073 -132.0186,18.06873 -265.3491,-1.74471 -141.2873,-20.99585 -186.3229,-20.57712 -329.46258,3.04679 -83.29742,13.74752 -148.40859,18.8052 -241.97354,18.8052 -92.0365,0 -158.80618,-5.12567 -231.21696,-17.74804 -133.10453,-23.20187 -170.17957,-24.43289 -286.26863,-9.50959 -54.735832,7.03631 -105.982929,11.9423 -124.769413,11.9423 -12.5502006,0 -15.0617894,0.60775 -15.0617894,3.64414 0,3.3014 3.4658367,3.51377 36.8846124,2.26471 20.286536,-0.75824 55.712276,-3.33524 78.72387,-5.72837 128.7504,-13.38955 185.23568,-11.76897 338.01718,9.6948 59.9917,8.42804 110.60984,14.04897 156.3467,17.36555 24.98768,1.81196 125.67981,-0.76988 158.54879,-4.06528 18.77261,-1.88213 57.91435,-6.89099 86.98163,-11.13012 101.75386,-14.83961 124.05983,-16.79035 206.09543,-18.02304 95.8865,-1.44079 132.9022,1.30032 265.1467,19.62592 9.6892,1.34272 36.9397,2.42239 60.5569,2.39795 44.9095,-0.0466 49.1232,-0.53697 137.3152,-15.87438 77.2237,-13.42988 132.3683,-13.74658 220.1249,-1.27199 62.5429,8.89042 96.4686,10.34697 201.3343,8.64192 74.6487,-1.21372 95.2392,-2.15272 95.2392,-4.3403 0,-2.20807 -25.1797,-3.00601 -120.5631,-3.81175 -129.6213,-1.09492 -121.6039,-0.50346 -206.6113,-15.15669 -38.0458,-6.55818 -45.5056,-7.17078 -85.713,-7.01326 z M 280.80815,449.71912 c -37.30465,-0.25079 -82.27901,4.54252 -175.15887,17.3355 -18.167052,2.50225 -48.246489,5.46375 -66.844762,6.57921 -18.598274,1.11544 -34.3876617,2.60177 -35.0868309,3.30034 -6.7913248,6.78569 47.9195689,4.92041 130.5584429,-4.44773 38.64325,-4.38069 66.04431,-6.01161 115.60849,-6.88434 75.2969,-1.32578 104.83397,0.86903 194.88286,14.49064 65.03009,9.83701 104.18643,14.89158 137.62915,17.76518 31.76867,2.72977 124.44545,0.93635 161.85189,-3.13276 16.9559,-1.84451 48.17019,-5.8285 69.36508,-8.85253 115.15185,-16.42954 159.82103,-19.60644 254.5623,-18.11325 76.0372,1.19835 113.0765,4.15291 183.649,14.65391 77.984,11.60381 130.455,11.10982 202.59,-1.908 82.1278,-14.8212 96.5663,-16.37142 153.0436,-16.41584 29.0673,-0.0229 60.7771,1.09498 70.4662,2.48385 9.6891,1.38889 36.4441,5.29672 59.4557,8.6849 l 41.8393,6.16239 131.4357,-0.043 c 72.2896,-0.0222 132.0912,-0.69327 132.8939,-1.49546 5.5457,-5.54093 -6.3339,-6.15203 -119.6728,-6.15381 -65.0271,-10e-4 -129.1323,-1.03247 -142.4548,-2.29048 -13.3224,-1.258 -48.0051,-6.42029 -77.0722,-11.4696 -51.1315,-8.88208 -54.4246,-9.17885 -101.2952,-9.20915 -52.9244,-0.0344 -57.9998,0.60327 -130.3132,16.4373 -58.8534,12.88674 -91.5902,16.16924 -144.945,14.5293 -45.1989,-1.38927 -67.2427,-3.69355 -126.6189,-13.23153 -141.3574,-22.70725 -187.7252,-22.44945 -344.62331,1.89514 -81.96137,12.71728 -130.76691,16.4873 -213.60043,16.51036 -84.40518,0.0236 -141.69246,-5.05854 -222.40871,-19.73769 -64.17432,-11.67079 -71.06302,-12.71312 -103.49711,-15.62079 -12.2201,-1.09553 -23.80459,-1.73849 -36.23949,-1.82211 z m -14.39084,37.47281 c -29.69799,0.34715 -54.70111,3.31625 -114.52463,12.02392 -66.309207,9.65132 -107.159145,14.06507 -130.472445,14.09526 -15.4344856,0.0198 -18.1670474,0.56887 -18.1670474,3.66565 0,3.29905 3.2923337,3.51072 34.6825464,2.22603 19.075399,-0.7807 60.942188,-4.34741 93.037296,-7.92429 143.02633,-15.93978 201.50375,-14.50232 340.21924,8.35401 45.89009,7.56137 63.26435,9.83755 110.10332,14.42185 20.5679,2.01307 103.94245,-1.05119 139.83121,-5.1396 21.1949,-2.41451 56.37291,-6.8887 78.17338,-9.93975 85.55691,-11.97394 104.03683,-13.16472 204.79212,-13.19282 100.5382,-0.0282 117.4845,1.06043 203.6912,13.07679 95.257,13.27792 133.3347,13.22966 210.2973,-0.26644 123.705,-21.69277 172.6454,-22.88657 284.0666,-6.94446 l 48.4454,6.93159 145.0955,0.80788 c 135.2741,0.75331 153.7999,0.16706 148.7342,-4.69695 -0.5248,-0.50393 -68.338,-1.94899 -150.6953,-3.21014 -133.194,-2.03967 -152.539,-2.77768 -175.0644,-6.69096 -94.4606,-16.41035 -95.7918,-16.56449 -145.3363,-16.65216 -51.0328,-0.0902 -65.891,1.76643 -131.4273,16.40724 -50.7396,11.33524 -68.0473,13.5204 -116.3052,14.70118 -51.5832,1.26211 -82.104,-1.21235 -155.1726,-12.59121 -149.5493,-23.28914 -204.74255,-23.11022 -358.44215,1.16031 -61.17362,9.65984 -94.03121,12.40273 -163.68406,13.6741 -90.06986,1.64404 -137.7012,-2.17005 -215.63909,-17.2753 -63.44926,-12.29716 -87.68203,-15.31512 -133.51316,-16.6135 -12.4063,-0.35146 -22.82632,-0.52396 -32.72563,-0.40823 z m 22.00346,36.63907 c -42.49912,0.10445 -67.93982,2.73735 -143.13431,14.81294 -50.524346,8.11375 -76.642783,11.11825 -116.158992,13.35611 -20.6378084,1.16876 -25.8742804,2.12023 -25.8742804,4.70129 0,5.67355 56.0933884,1.47645 172.8622024,-12.9307 32.89342,-4.05844 51.25149,-4.9088 107.90125,-5.01068 77.43904,-0.1393 94.22267,1.2975 178.36737,15.29854 49.52335,8.24031 73.48067,11.54058 109.0023,15.01919 18.54525,1.81613 45.4897,1.21181 79.27438,-1.77912 19.98375,-1.76912 58.63,-6.23077 85.88058,-9.91825 106.05289,-14.35074 184.71354,-18.82557 272.19173,-15.479 64.3145,2.46038 89.118,4.55614 158.3123,13.3733 103.555,13.19567 150.0066,13.43279 217.1529,1.10872 80.2174,-14.72309 113.1086,-17.59541 183.4683,-16.03336 41.4554,0.92036 64.4762,2.67412 105.6519,8.05321 80.0747,10.46072 105.1773,11.46239 245.182,9.78932 100.2232,-1.19771 126.0682,-2.08262 126.0682,-4.32311 0,-2.2554 -31.1149,-3.00971 -155.796,-3.76447 -101.7971,-0.61625 -161.9022,-1.82768 -173.4128,-3.49802 -9.6891,-1.406 -38.4261,-5.98739 -63.86,-10.18042 -107.688,-17.75353 -133.1033,-16.88231 -253.2376,8.68922 -79.6028,16.9441 -148.7688,16.43756 -268.0886,-1.97247 -137.002,-21.1382 -223.06229,-21.45713 -345.18687,-1.27202 -63.3422,10.46939 -99.04975,13.71917 -163.4045,14.86449 -81.32909,1.44741 -106.02968,-1.07557 -218.65401,-22.30746 -43.22248,-8.14828 -70.8553,-10.70468 -114.50745,-10.59725 z"
       inkscape:label="black"
       sodipodi:insensitive="true" />
  </g>
  <g
     inkscape:groupmode="layer"
     id="layer2"
     inkscape:label="White">
    <rect
       style="display:inline;fill:#000000;stroke:none;stroke-width:4.39632;stroke-opacity:1"
       id="rect2"
       width="2048"
       height="1152"
       x="0"
       y="0"
       inkscape:label="background" />
    <path
       id="path1"
       style="display:inline;fill:#f9f9f9;stroke:#ffffff;stroke-width:4.9183;stroke-opacity:1"
       d="m 1434.1,358.91283 c -36.91,-0.017 -57.3083,2.09007 -121.7911,12.58516 -57.2873,9.32397 -90.4834,11.87029 -136.9442,10.49416 -38.4411,-1.1386 -66.5151,-3.95258 -112.1494,-11.23866 -53.2403,-8.50046 -74.55476,-10.48763 -112.14943,-10.45853 -39.15549,0.0303 -61.19085,2.06217 -136.11302,12.55309 -39.84576,5.57938 -52.46417,6.57279 -94.18425,7.42001 -53.2085,1.08051 -73.45657,-0.29608 -127.23898,-8.65252 -68.29788,-10.61178 -78.1975,-11.5923 -116.94213,-11.57349 -34.01381,0.0166 -41.70283,0.66426 -85.31028,7.1742 l -47.92709,7.15285 -80.99681,0.0179 c -59.44592,0.0115 -80.99698,0.5688 -80.99682,2.09811 3e-4,2.80916 55.32463,5.28073 111.19089,4.96923 36.50165,-0.20353 50.06195,-1.11818 88.18586,-5.95595 77.72671,-9.86319 118.39622,-9.54253 200.33533,1.58517 35.55401,4.82839 66.81425,8.27089 90.10296,9.91708 19.25518,1.36108 77.48966,-1.05071 108.31528,-4.48477 17.39754,-1.93814 45.86624,-5.1738 63.26378,-7.18847 74.728,-8.65366 132.51707,-8.34851 205.12801,1.07934 19.5063,2.53272 44.9557,5.84383 56.554,7.35945 11.8968,1.55461 43.2304,3.17534 71.8907,3.71534 52.0298,0.98032 86.3096,-1.08547 126.5275,-7.62305 44.1298,-7.17343 77.7146,-10.28174 122.0082,-11.28852 52.5491,-1.19441 73.1752,0.18757 141.591,9.47895 62.7476,8.52159 80.5165,10.03367 117.6235,10.01326 33.4922,-0.0184 60.8922,-2.40897 113.3851,-9.89571 47.8391,-6.82302 78.853,-8.85662 121.9745,-7.99351 35.7072,0.7147 39.0605,0.51794 39.0605,-2.29761 0,-4.59735 -5.2137,-5.35287 -45.0514,-6.54015 -40.5825,-1.20946 -59.4041,0.22064 -113.8343,8.66321 -61.9995,9.6166 -75.2298,10.78766 -121.8435,10.76845 -49.064,-0.0202 -71.4142,-1.95774 -134.3195,-11.64118 -57.8435,-8.90425 -71.663,-10.19549 -109.3449,-10.21275 z m -16.2241,26.93359 c -39.0527,-0.0518 -59.6125,2.0838 -122.6934,12.74188 -38.9109,6.57434 -39.832,6.64304 -92.9786,6.69688 -57.9365,0.0587 -47.379,1.06576 -146.657,-14.01001 -21.6806,-3.2923 -33.9695,-3.92959 -75.72479,-3.92908 -52.04369,6.3e-4 -68.30487,1.36834 -127.48611,10.71501 -53.07678,8.38258 -76.57131,10.55864 -115.02505,10.66514 -41.46272,0.11484 -55.23825,-1.20962 -120.7763,-11.6198 -90.89475,-14.43789 -116.85704,-14.23786 -223.34034,1.71697 -39.29478,5.88769 -86.93364,7.90822 -152.88748,6.48315 -51.36758,-1.10991 -58.95034,-0.92686 -58.95034,1.42486 0,3.31294 39.52726,5.16664 110.23236,5.17228 48.8193,0.004 63.9138,-1.06363 118.85922,-8.41741 78.41618,-10.49507 129.84173,-9.41194 230.0501,4.84812 67.91553,9.66465 109.81142,9.26733 194.65896,-1.85233 63.98968,-8.38615 83.64897,-9.84455 134.12102,-9.94559 49.37315,-0.0988 69.01775,1.26287 140.90575,9.7746 79.3892,9.3999 110.7173,9.11 193.6105,-1.78821 102.0536,-13.41728 168.5994,-12.28317 273.5028,4.65932 51.9444,8.38932 97.9011,9.47938 145.8819,3.45887 11.6446,-1.46113 28.5907,-3.83853 37.6602,-5.2827 40.4502,-6.44102 54.0208,-7.40226 101.8002,-7.20983 38.8131,0.1563 53.5669,0.93305 71.6022,3.77233 18.8837,2.9728 22.8846,3.15472 23.7202,1.0829 0.553,-1.37075 0.45,-3.0201 -0.2283,-3.66547 -0.6785,-0.64538 -13.0773,-3.1062 -27.5544,-5.4715 -19.2495,-3.14503 -37.1725,-4.58416 -66.7011,-5.35037 -44.4791,-1.15418 -54.0762,-0.33583 -110.1124,9.35782 -81.5532,14.10777 -122.5903,13.57649 -218.5215,-2.81412 -48.9857,-8.3696 -78.1172,-11.16219 -116.9683,-11.21371 z m -5.7963,28.06279 c -32.9169,-0.4436 -64.8601,3.04937 -109.2288,10.29823 -40.3496,6.59223 -42.2464,6.72875 -90.1029,6.63633 -37.2621,-0.0719 -53.6719,-0.85248 -69.0151,-3.28788 -75.9271,-12.05187 -83.6011,-12.79975 -132.2788,-12.91644 -50.75417,-0.12167 -64.5524,1.06508 -125.56901,10.81119 -63.43393,10.13222 -72.09208,10.922 -118.85923,10.83613 -45.76984,-0.084 -55.85699,-1.06133 -111.18341,-10.7827 -79.83697,-14.0281 -132.47484,-14.04125 -216.63802,-0.0499 -51.4582,8.55446 -76.77269,10.04532 -170.56434,10.04532 -71.68964,0 -87.2835,0.43558 -87.2835,2.44365 0,2.78476 55.12506,4.865 128.27617,4.83743 47.91698,-0.0181 70.83327,-1.69587 123.82043,-9.05148 91.31039,-12.67559 136.44523,-12.24366 238.67697,2.27267 38.37861,5.44954 44.65022,5.84812 91.06152,5.80278 46.85781,-0.0458 52.83058,-0.44729 99.68838,-6.71826 70.06971,-9.37742 85.37919,-10.52978 139.97334,-10.52978 49.5946,0 82.5686,2.22682 139.3181,9.40769 47.0615,5.95498 99.5321,5.68348 151.0939,-0.78367 60.1448,-7.54365 78.0597,-8.83848 121.705,-8.79144 45.4527,0.049 73.5101,2.59386 134.7501,12.22537 34.8087,5.47453 55.1959,7.68667 87.6617,9.50743 2.1088,0.11827 14.6178,-0.53774 27.7977,-1.45692 13.1799,-0.91919 38.6292,-3.71794 56.5539,-6.21956 17.9248,-2.5016 43.6631,-5.52973 57.198,-6.72894 32.793,-2.90546 92.3189,-1.1963 125.8837,3.61561 14.2343,2.04066 32.2225,4.26659 39.9741,4.9443 13.1621,1.15075 14.049,1.00144 13.3971,-2.22993 -0.5796,-2.87276 -3.1186,-3.68862 -14.9473,-4.81249 -7.8358,-0.7445 -30.2525,-3.96973 -49.818,-7.16709 -31.7606,-5.19032 -39.7866,-5.82714 -74.8748,-5.9417 -24.6836,-0.0806 -44.6478,0.76768 -53.6783,2.28335 -7.908,1.32726 -27.7498,4.77846 -44.093,7.66579 -72.1571,12.74801 -108.0601,12.21881 -193.6256,-2.84617 -48.2619,-8.49717 -82.1528,-12.87536 -115.07,-13.31895 z m -382.7465,27.38241 c -36.18874,0.66584 -72.74632,4.70957 -118.52601,12.29305 -49.7384,8.23924 -67.83438,9.89678 -106.3982,9.73542 -35.62517,-0.14907 -40.29357,-0.64033 -116.94214,-12.30019 -72.41821,-11.01631 -122.72743,-10.55886 -202.25988,1.84521 -73.12149,11.4042 -82.65257,12.03851 -198.00635,13.12305 -76.8991,0.72299 -105.79958,1.55462 -105.28238,3.03497 1.76515,5.05226 190.51135,5.22872 236.19826,0.22085 14.76154,-1.61807 40.64219,-4.90785 57.51254,-7.30959 16.87035,-2.40172 41.67522,-5.33046 55.12366,-6.51163 34.31776,-3.01414 114.394,-1.19343 154.79707,3.51942 116.6511,13.60687 127.74907,13.76301 208.96219,2.98153 54.95218,-7.29519 65.35018,-8.23669 109.71194,-9.94558 47.846,-1.84312 89.0964,-0.30492 151.0976,5.63893 55.6512,5.33506 101.8163,5.22324 152.3222,-0.37403 31.4617,-3.48673 47.9736,-4.24593 92.02,-4.23187 57.2716,0.0182 70.7799,1.1796 136.113,11.70175 64.4283,10.37642 94.3819,11.04224 158.1593,3.51228 73.395,-8.66542 115.4886,-8.83263 176.6751,-0.69462 19.3403,2.57231 47.115,5.16222 61.7213,5.75291 25.3834,1.02653 26.5252,0.91914 25.8581,-2.39735 -0.632,-3.14155 -3.2364,-3.584 -27.517,-4.69137 -15.2832,-0.69704 -44.9561,-4.02003 -68.9925,-7.72636 -70.0598,-10.80293 -93.5393,-10.62883 -165.8278,1.23965 -33.2808,5.4641 -38.2419,5.81669 -80.5175,5.71015 -40.45,-0.10193 -47.8908,-0.61557 -72.8493,-5.02621 -98.6999,-17.44215 -90.1319,-16.47477 -146.6569,-16.53206 -46.8269,-0.0474 -54.868,0.40976 -84.3517,4.81251 -67.6092,10.09598 -94.0623,10.18945 -165.8278,0.59132 -44.3083,-5.92593 -80.1282,-8.63798 -116.3168,-7.97214 z m 24.0571,25.63339 c -13.1954,0.17591 -24.9724,0.58964 -34.1331,1.261 -16.2685,1.19229 -51.2074,4.71099 -77.64188,7.82252 -65.87433,7.75392 -110.97637,7.85227 -183.21634,0.39896 -44.15591,-4.55573 -58.20205,-5.24158 -107.35672,-5.25419 -60.25574,-0.0155 -76.13777,1.18696 -132.27882,10.03108 -79.62759,12.54404 -82.95395,12.77187 -214.49253,14.55859 -66.83241,0.90781 -121.91414,2.03001 -122.40509,2.49708 -4.6392,4.41355 7.19629,4.84027 118.02425,4.23186 98.83642,-0.54257 119.8489,-1.1248 139.8685,-3.87919 25.20924,-3.46843 29.23258,-3.18613 28.19839,1.99481 -0.36281,1.8175 -0.7281,7.52592 -0.80877,12.68488 -0.11198,7.15808 -0.94076,9.67777 -3.50095,10.62953 -1.84518,0.68594 -65.75389,1.93287 -142.02148,2.77493 -76.2676,0.84207 -139.17443,2.0113 -139.7899,2.59683 -0.61547,0.58553 -0.47163,1.68062 0.31827,2.43296 2.55132,2.42996 198.5625,2.76905 238.83799,0.4132 20.56074,-1.20264 39.52876,-2.30075 42.15339,-2.44008 4.48572,-0.23808 4.81135,0.36795 5.41802,10.09518 1.21599,19.49722 9.17206,17.92131 -90.46242,17.92131 -128.62753,0 -196.74452,1.74005 -196.74452,5.02622 0,2.25657 18.60888,2.47332 135.63373,1.56734 74.59853,-0.57752 139.08444,-1.27233 143.30204,-1.54241 l 7.66833,-0.49159 0.56165,13.22281 0.56539,13.22276 h -88.91602 c -130.60782,0 -198.81512,1.72378 -198.81512,5.02623 0,2.25453 19.88014,2.53048 143.85621,1.98769 l 143.8562,-0.63053 -0.55416,12.41419 -0.55415,12.41059 -97.77128,0.089 c -128.04611,0.11583 -187.28297,1.63818 -188.39848,4.83744 -0.68418,1.96222 24.98492,2.32801 142.66926,2.03756 l 143.5005,-0.35266 v 12.54953 12.55311 l -6.7098,-0.0819 c -3.6904,-0.0453 -26.5516,-1.11823 -50.80272,-2.38311 -44.36809,-2.31412 -63.52957,-1.95363 -178.28884,3.35913 -21.08793,0.97626 -41.14542,1.79156 -44.57221,1.80958 -4.50877,0.0237 -6.23053,0.86578 -6.23053,3.05278 0,2.74105 2.98125,2.91043 32.03628,1.82028 17.61918,-0.66108 68.73344,-1.7127 113.58725,-2.33679 96.8521,-1.3476 151.20897,0.73406 222.55774,8.52071 152.70009,16.66488 174.06243,18.10884 255.82967,17.27653 43.42475,-0.44201 76.90542,-1.70363 94.89569,-3.57286 35.38516,-3.67663 73.6938,-8.82751 110.23238,-14.82575 15.8159,-2.59637 37.8144,-5.61515 48.8856,-6.70758 11.0712,-1.09239 20.4585,-2.22968 20.8596,-2.52555 0.4011,-0.29592 -3.5258,-5.28482 -8.7243,-11.08907 -5.1985,-5.80427 -21.4873,-23.95981 -36.1962,-40.34515 -14.7089,-16.38536 -27.0295,-30.54661 -27.3821,-31.46823 -0.3526,-0.92163 14.7444,-18.65561 33.549,-39.40829 18.8046,-20.75267 34.8775,-38.80488 35.7206,-40.11718 1.2361,-1.92371 -3.9677,-2.38664 -26.8579,-2.38664 h -28.3893 l -22.00898,24.62174 c -12.10487,13.54195 -22.51243,24.62172 -23.12859,24.62172 -1.24235,0 -40.71846,-45.04607 -41.73403,-47.62267 -0.70129,-1.77928 -57.83079,-2.29657 -57.83079,-0.52363 0,1.25467 27.35242,32.91268 52.18061,60.39663 9.25905,10.24941 16.83441,19.15376 16.83441,19.78427 0,0.63055 -16.39107,19.49792 -36.42458,41.92677 -20.03355,22.42878 -36.42463,41.56407 -36.42463,42.52519 0,1.02658 11.39825,1.80954 27.62926,1.89509 l 27.62922,0.14249 21.56346,-25.06347 c 11.85845,-13.78629 22.6159,-26.17248 23.90738,-27.52488 1.91536,-2.00572 5.61091,1.35566 20.04328,18.2383 23.66238,27.67981 30.21618,34.32885 34.11058,34.61364 1.8027,0.13191 -2.3312,0.88116 -9.1848,1.66353 -107.68008,12.29268 -127.16204,13.44563 -227.17445,13.45432 -50.92613,0.003 -106.35719,-0.98139 -127.48612,-2.2691 -55.97542,-3.41145 -147.37131,-11.27595 -152.09368,-13.0874 -2.49196,-0.9559 22.08914,-1.64045 61.51145,-1.70985 l 65.66014,-0.11401 v -18.21341 -18.21337 l -61.82597,-0.48088 -61.82598,-0.4809 -0.5579,-14.1062 -0.56163,-14.10264 51.36436,-0.48803 51.36066,-0.48444 0.55042,-16.87043 0.55042,-16.87044 h -51.83241 -51.83247 v -13.67877 -13.67871 h 60.3882 60.38813 v -19.15026 -19.15024 l -69.4943,-0.19948 c -71.76476,-0.20635 -74.726,-0.85547 -27.57682,-6.0557 64.8273,-7.14998 114.82277,-7.51756 214.01327,-1.57447 73.41232,4.39856 129.65372,3.88264 199.37679,-1.82027 80.15319,-6.55603 117.69619,-7.52918 181.16439,-4.7092 32.5157,1.44472 107.719,2.41109 190.75,2.45435 l 137.0714,0.0713 42.1684,5.15091 c 23.1932,2.83273 42.5343,5.49542 42.9772,5.91676 0.4429,0.42133 -26.516,0.76587 -59.9051,0.76587 h -60.7064 v 82.98435 82.98434 l 62.7845,0.1425 c 34.5314,0.0792 61.7913,0.53213 60.579,1.00453 -1.2122,0.47244 -8.545,2.027 -16.2952,3.45531 l -14.0898,2.59684 12.461,-0.84069 c 6.8536,-0.46222 24.9701,-1.82189 40.2588,-3.02072 36.523,-2.86381 142.7769,-2.80096 208.9621,0.12112 28.996,1.28019 80.7573,2.05052 115.0252,1.7134 53.8179,-0.52941 62.3053,-0.98533 62.3053,-3.34844 0,-2.37926 -12.1156,-2.87575 -92.9786,-3.81863 -65.1317,-0.75945 -104.1748,-2.0523 -130.3617,-4.31024 -36.5966,-3.15549 -85.8538,-3.07389 -123.1728,0.19948 l -12.9403,1.13279 v -13.01615 -13.01619 l 66.6187,0.0321 c 36.6402,0.0164 89.9113,1.23095 118.3799,2.69655 82.5017,4.24733 176.5876,3.36722 174.8404,-1.63501 -0.4871,-1.39428 -26.9251,-2.35795 -86.8117,-3.16678 -59.2532,-0.80026 -94.4827,-2.07793 -112.9508,-4.09295 -44.5466,-4.86032 -83.5309,-5.54175 -128.9464,-2.25484 -41.8738,3.03063 -107.1112,3.86207 -138.191,1.76328 l -17.5496,-1.18265 v -13.51486 -13.51489 l 128.924,1.13635 c 77.306,0.68271 146.9614,2.21528 173.9753,3.82576 94.0319,5.60583 182.123,5.54324 182.123,-0.12824 0,-1.84415 -15.6943,-2.5479 -74.2869,-3.33775 -55.4709,-0.74776 -83.7559,-1.95553 -111.6703,-4.76263 -60.6175,-6.09574 -88.1783,-6.50959 -143.2384,-2.15867 -26.5884,2.10095 -49.6652,3.81859 -51.2819,3.81859 -2.405,0 -2.9392,-2.75148 -2.9392,-15.12853 v -15.12854 l 34.9867,0.52721 c 19.2427,0.28867 65.1809,0.89567 102.0848,1.35004 37.7043,0.46421 80.5349,2.03805 97.7713,3.59067 41.1832,3.70977 148.5739,4.04462 148.5739,0.46308 0,-1.96538 -12.2813,-2.68309 -62.9604,-3.66549 -48.7407,-0.94478 -72.4477,-2.26914 -104.9603,-5.87045 -58.3665,-6.46499 -92.8892,-7.34154 -139.7712,-3.54435 -21.9196,1.77537 -68.1069,3.5187 -107.8361,4.06801 l -69.4943,0.96179 V 542.639 528.95314 l 120.2971,-1.37855 c 135.9378,-1.55769 175.5171,-0.7972 234.3635,4.50256 27.7562,2.49975 55.8217,3.71526 85.9319,3.72248 41.554,0.009 44.6645,-0.2148 44.0667,-3.18101 -0.5906,-2.93066 -5.5785,-3.28312 -61.006,-4.30667 -51.5521,-0.95199 -65.5433,-1.83559 -95.8317,-6.06283 -47.7411,-6.66301 -89.1013,-7.84645 -140.9057,-4.02525 -22.1424,1.63328 -46.2977,3.17987 -53.6784,3.43752 l -13.4196,0.47018 -0.5541,-12.76681 -0.5504,-12.76682 56.1458,-0.84068 c 108.5993,-1.62693 149.1581,-0.87767 185.5528,3.43037 20.9111,2.47527 50.7732,4.38327 79.2744,5.06543 44.2036,1.05796 45.7032,0.97888 45.029,-2.36885 -0.6553,-3.25375 -3.5337,-3.52565 -47.6425,-4.5311 -39.8766,-0.90897 -53.1527,-1.98465 -88.1635,-7.13146 -35.8269,-5.26678 -46.2316,-6.08066 -79.5589,-6.22311 -25.4473,-0.10877 -49.596,0.98619 -71.8084,3.25582 -50.326,5.14226 -90.6787,3.57658 -151.7304,-5.88826 -71.2393,-11.04423 -104.0167,-13.69487 -153.1683,-12.3928 -22.6695,0.60054 -50.7069,2.01913 -62.3053,3.15252 -30.3384,2.9647 -88.8874,2.50031 -125.569,-0.99384 -32.8977,-3.13373 -85.2638,-4.73472 -124.8501,-4.20693 z m 331.8953,23.17547 -23.4845,0.51297 -23.4841,0.51295 v 48.78748 c 0,26.83352 -0.4918,48.78788 -1.0933,48.78752 -0.6016,-3.5e-4 -21.6306,-22.15956 -46.7291,-49.24347 l -45.6317,-49.24345 h -23.7278 -23.7239 v 82.98435 82.98434 h 23.9337 23.9336 l 0.5092,-50.7823 0.5093,-50.78232 46.6838,50.78232 46.6879,50.7823 h 22.8065 22.8104 v -83.04133 z m -532.65744,0.003 -24.58886,0.50938 -24.58886,0.51296 -0.95853,53.80302 c -0.88501,49.67584 -1.25668,54.29271 -4.82642,60.18645 -5.97575,9.86616 -18.762,15.07155 -37.03117,15.07155 -22.72875,0 -35.97961,-7.95135 -40.62946,-24.3795 -1.13282,-4.00247 -1.93421,-26.38887 -1.86466,-52.1965 0.067,-24.85381 0.0938,-47.03632 0.0598,-49.29331 -0.0606,-4.0348 -0.46376,-4.10371 -24.14318,-4.10371 h -24.08337 l 0.59907,58.81857 0.59909,58.81856 6.21556,12.08645 c 7.37031,14.33114 17.66995,23.75293 33.80732,30.93036 15.66211,6.96601 28.46198,8.88184 54.87279,8.20724 17.70676,-0.45227 24.82122,-1.48709 36.14381,-5.25777 18.20456,-6.06261 28.03798,-12.67251 36.15125,-24.2976 12.06872,-17.29263 12.69661,-21.17966 13.52068,-83.28 z m 256.59734,0.11034 v 82.98435 82.98434 h 23.9634 23.9636 v -82.984 -82.98434 h -23.9636 z m 520.4883,179.74717 c -36.476,-0.0622 -49.8836,1.46442 -104.7769,11.91544 -84.711,16.12793 -124.3323,16.4037 -229.9265,1.61011 -64.4245,-9.02577 -79.6915,-10.65417 -118.5073,-12.6457 -51.7484,-2.65506 -86.4198,0.10248 -183.26128,14.56573 -87.99087,13.14132 -159.92347,17.51772 -257.84785,15.69493 -88.70911,-1.6513 -129.80839,-4.97454 -219.0531,-17.71469 -105.20426,-15.01848 -136.03428,-15.7321 -227.006,-5.25777 -17.05578,1.96379 -43.79911,4.45091 -59.42961,5.52848 -46.75361,3.22326 -48.54867,3.47039 -48.54867,6.64346 0,2.50854 3.16335,2.69611 26.35991,1.57448 14.49795,-0.70104 46.14331,-2.86376 70.32181,-4.80895 109.24274,-8.78858 164.74585,-6.91063 301.11328,10.19139 112.008,14.04709 179.6966,17.68832 253.05512,13.61819 41.52675,-2.30403 76.73031,-5.97296 133.23737,-13.88891 85.62432,-11.99493 105.78302,-13.71669 172.53762,-14.75453 74.3045,-1.15523 105.3132,0.57933 183.3062,10.26975 95.4442,11.85867 115.8512,11.68644 200.1106,-1.7134 24.7784,-3.94048 55.4037,-8.11822 68.0565,-9.283 27.5423,-2.53556 84.5532,-1.06732 115.0251,2.96372 55.4383,7.33376 71.7524,8.15184 163.4315,8.1716 79.2485,0.0164 90.5821,-0.32447 90.5821,-2.71792 0,-2.19954 -3.0998,-2.76364 -15.8158,-2.87467 -96.386,-0.84163 -192.4197,-3.66148 -207.5244,-6.09488 -61.7994,-9.95591 -71.1696,-10.93444 -105.4397,-10.99286 z m -30.6734,29.34872 c -41.444,0.15473 -45.0148,0.61199 -116.9421,14.91125 -76.5569,15.21967 -114.9333,14.97763 -231.0088,-1.44624 -123.0025,-17.40399 -162.2097,-17.05689 -286.82488,2.52556 -72.51743,11.39567 -129.20219,15.58811 -210.65836,15.58811 -80.12553,0 -138.25417,-4.2488 -201.29385,-14.7118 -115.87871,-19.23262 -148.15566,-20.25304 -249.22097,-7.88274 -47.65216,5.83258 -92.26707,9.89928 -108.62229,9.89928 -10.92601,0 -13.11256,0.50378 -13.11256,3.02072 0,2.73661 3.0173,2.91265 32.11117,1.87727 17.66113,-0.62852 48.50223,-2.76466 68.53576,-4.74839 112.08807,-11.09894 161.26327,-9.7556 294.27244,8.03627 52.22783,6.98621 96.29519,11.64554 136.11298,14.39474 21.75388,1.50198 109.41487,-0.63817 138.03008,-3.36981 16.34314,-1.56015 50.41933,-5.71212 75.72484,-9.22604 88.58534,-12.30093 108.00454,-13.91795 179.42344,-14.93976 83.4773,-1.1943 115.7026,1.07787 230.8325,16.26843 8.4353,1.11301 32.1592,2.00798 52.7199,1.98772 39.0975,-0.0386 42.7659,-0.44511 119.5445,-13.15868 67.2297,-11.13237 115.2377,-11.39489 191.6373,-1.05438 54.4488,7.36949 83.984,8.57686 175.2784,7.1635 64.988,-1.00608 82.9138,-1.78444 82.9138,-3.59778 0,-1.83033 -21.9211,-2.49176 -104.9604,-3.15966 -112.8462,-0.9076 -105.8664,-0.41733 -179.8725,-12.56376 -33.1221,-5.43624 -39.6165,-5.94404 -74.6204,-5.81347 z m -1176.04882,29.9867 c -32.47684,-0.20789 -71.63081,3.76541 -152.49056,14.36983 -15.81595,2.07418 -42.00263,4.52904 -58.194,5.45368 -16.19136,0.92461 -29.93736,2.15667 -30.54604,2.73573 -5.91242,5.62483 41.71802,4.07866 113.66213,-3.68683 33.6422,-3.63127 57.49713,-4.98318 100.64693,-5.70661 65.5523,-1.09897 91.26681,0.72036 169.66195,12.01166 56.61418,8.15415 90.70307,12.34401 119.81778,14.72601 27.6573,2.26277 108.34025,0.77616 140.90571,-2.59682 14.76154,-1.52897 41.93621,-4.8314 60.38815,-7.33809 100.24939,-13.61886 139.13767,-16.25228 221.61797,-15.01453 66.1967,0.99334 98.4426,3.44245 159.8819,12.14699 67.8916,9.6187 113.5721,9.20922 176.3717,-1.58159 71.4991,-12.28566 84.0691,-13.57068 133.2373,-13.6075 25.3055,-0.019 52.9116,0.90765 61.3468,2.05892 8.4351,1.15129 31.7276,4.39059 51.7612,7.19914 l 36.4246,5.10816 114.4259,-0.0356 c 62.9341,-0.0184 114.9965,-0.57467 115.6953,-1.23963 4.828,-4.59302 -5.5142,-5.09957 -104.1853,-5.10105 -56.6115,-8.3e-4 -112.4205,-0.85584 -124.0189,-1.89863 -11.5982,-1.04279 -41.7925,-5.32195 -67.0978,-9.50745 -44.5143,-7.36258 -47.3812,-7.60858 -88.186,-7.6337 -46.0752,-0.0285 -50.4937,0.50007 -113.4486,13.6253 -51.2369,10.68215 -79.737,13.40309 -126.1869,12.0437 -39.3494,-1.1516 -58.5404,-3.06167 -110.2324,-10.96795 -123.0635,-18.82261 -163.4306,-18.60891 -300.02363,1.57093 -71.35428,10.54168 -113.84362,13.66674 -185.95718,13.68586 -73.48182,0.0196 -123.35523,-4.19315 -193.62552,-16.36107 -55.86916,-9.67422 -61.86635,-10.53823 -90.10296,-12.94847 -10.63863,-0.90811 -20.7239,-1.44108 -31.54953,-1.51039 z m -12.52844,31.06216 c -25.8546,0.28776 -47.62193,2.74892 -99.70334,9.96693 -57.72776,8.00023 -93.29107,11.6589 -113.58726,11.68392 -13.43702,0.0164 -15.81595,0.47155 -15.81595,3.03855 0,2.73467 2.86626,2.91013 30.19408,1.84521 16.60674,-0.64714 53.05531,-3.60368 80.99681,-6.56864 124.51647,-13.21289 175.426,-12.02134 296.18952,6.92485 39.95119,6.26781 55.07695,8.15459 95.85422,11.95464 17.90609,1.66868 90.49066,-0.87136 121.73485,-4.26035 18.45195,-2.00145 49.07737,-5.71022 68.05652,-8.23931 74.4845,-9.9255 90.57283,-10.91257 178.28881,-10.93586 87.527,-0.0234 102.2801,0.87901 177.3303,10.83968 82.9293,11.00641 116.0791,10.9664 183.0816,-0.22086 107.6956,-17.98169 150.3023,-18.97126 247.3039,-5.75644 l 42.1758,5.74577 126.3178,0.66968 c 117.7675,0.62443 133.8958,0.13848 129.4857,-3.89343 -0.4569,-0.41772 -59.494,-1.61556 -131.193,-2.66096 -115.9566,-1.69074 -132.798,-2.30249 -152.4083,-5.54631 -82.2359,-13.60295 -83.3948,-13.73072 -126.5275,-13.8034 -44.4283,-0.0748 -57.3636,1.46424 -114.4185,13.60038 -44.1731,9.39607 -59.2409,11.2074 -101.2535,12.18618 -44.9075,1.0462 -71.4784,-1.00495 -135.0908,-10.43717 -130.1953,-19.30496 -178.2457,-19.15665 -312.05411,0.96181 -53.2568,8.00729 -81.8621,10.28094 -142.50077,11.33481 -78.41341,1.36278 -119.8805,-1.79881 -187.732,-14.31994 -55.23793,-10.19342 -76.3346,-12.69509 -116.23446,-13.77135 -10.80073,-0.29133 -19.87224,-0.43432 -28.49042,-0.33839 z m 19.15587,30.37105 c -36.99907,0.0866 -59.14734,2.26906 -124.61048,12.27883 -43.98571,6.72569 -66.72401,9.21619 -101.1262,11.07121 -17.96695,0.96882 -22.52574,1.75752 -22.52574,3.89702 0,4.70295 48.83402,1.22387 150.49112,-10.71858 28.63649,-3.36415 44.61874,-4.06903 93.93713,-4.15348 67.41721,-0.11547 82.02877,1.07553 155.28383,12.68135 43.11425,6.8306 63.97111,9.56627 94.89569,12.44978 16.1452,1.50544 39.60261,1.0045 69.01502,-1.47476 17.39754,-1.46646 51.04236,-5.16484 74.76629,-8.22148 92.32798,-11.8957 160.8087,-15.605 236.96583,-12.83094 55.9912,2.03947 77.5847,3.7767 137.8242,11.08547 90.1534,10.93822 130.5934,11.13478 189.0499,0.91904 69.836,-12.20434 98.4706,-14.58528 159.7246,-13.29045 36.0904,0.76291 56.132,2.21664 91.9789,6.67551 69.7118,8.67115 91.5657,9.50146 213.4516,8.11461 87.2527,-0.99281 109.753,-1.72634 109.753,-3.58353 0,-1.86956 -27.0882,-2.49483 -135.6336,-3.12047 -88.6229,-0.51082 -140.9495,-1.51501 -150.9704,-2.8996 -8.4352,-1.16547 -33.4532,-4.9631 -55.5955,-8.43881 -93.7515,-14.71635 -115.8777,-13.99417 -220.4647,7.20272 -69.301,14.04539 -129.5158,13.62551 -233.3937,-1.63503 -119.2718,-17.52199 -194.19454,-17.78636 -300.51428,-1.05441 -55.14472,8.67834 -86.23115,11.37217 -142.25739,12.32155 -70.80382,1.1998 -92.30777,-0.89156 -190.35674,-18.49122 -37.62881,-6.75431 -61.68551,-8.87338 -99.68838,-8.78433 z"
       inkscape:label="white" />
  </g>
</svg>
